<?xml version="1.0" encoding="UTF-8"?>
<!DOCTYPE svg PUBLIC "-//W3C//DTD SVG 1.1//EN" "http://www.w3.org/Graphics/SVG/1.1/DTD/svg11.dtd">
<!-- Creator: CorelDRAW X6 -->
<svg xmlns="http://www.w3.org/2000/svg" xml:space="preserve" width="210mm" height="210mm" version="1.1" style="shape-rendering:geometricPrecision; text-rendering:geometricPrecision; image-rendering:optimizeQuality; fill-rule:evenodd; clip-rule:evenodd"
viewBox="0 0 210 210"
 xmlns:xlink="http://www.w3.org/1999/xlink">
 <defs>
  <style type="text/css">
   <![CDATA[
    .fil0 {fill:gray}
   ]]>
  </style>
 </defs>
 <g id="Слой_x0020_1">
  <metadata id="CorelCorpID_0Corel-Layer"/>
  <path class="fil0" d="M179 31c41,41 41,107 0,148 -41,41 -107,41 -148,0 -41,-41 -41,-107 0,-148 41,-41 107,-41 148,0zm-109 123l9 9c2,2 6,2 9,0l16 -16c2,-2 2,-6 0,-9l-9 -9c-2,-2 -6,-2 -9,0l-16 16c-2,2 -2,6 0,9zm23 23l9 9c2,2 6,2 9,0l16 -16c2,-2 2,-6 0,-9l-9 -9c-2,-2 -6,-2 -9,0l-16 16c-2,2 -2,6 0,9zm-45 -45l9 9c2,2 6,2 9,0l16 -16c2,-2 2,-6 0,-9l-9 -9c-2,-2 -6,-2 -9,0l-16 16c-2,2 -2,6 0,9zm-23 -23l9 9c2,2 6,2 9,0l16 -16c2,-2 2,-6 0,-9l-9 -9c-2,-2 -6,-2 -9,0l-16 16c-2,2 -2,6 0,9zm49 -50l29 29 46 -46c2,-2 5,-2 7,0l14 14c2,2 2,5 0,7l-46 46 29 29c2,2 2,5 0,7l-14 14c-2,2 -5,2 -7,0l-78 -78c-2,-2 -2,-5 0,-7l14 -14c2,-2 5,-2 7,0z"/>
 </g>
</svg>
