<?xml version="1.0" encoding="UTF-8"?>
<!DOCTYPE svg PUBLIC "-//W3C//DTD SVG 1.1//EN" "http://www.w3.org/Graphics/SVG/1.1/DTD/svg11.dtd">
<!-- Creator: CorelDRAW X6 -->
<svg xmlns="http://www.w3.org/2000/svg" xml:space="preserve" width="210mm" height="210mm" version="1.1" style="shape-rendering:geometricPrecision; text-rendering:geometricPrecision; image-rendering:optimizeQuality; fill-rule:evenodd; clip-rule:evenodd"
viewBox="0 0 210 210"
 xmlns:xlink="http://www.w3.org/1999/xlink">
 <defs>
  <style type="text/css">
   <![CDATA[
    .fil0 {fill:#E95244}
   ]]>
  </style>
 </defs>
 <g id="Слой_x0020_1">
  <metadata id="CorelCorpID_0Corel-Layer"/>
  <path class="fil0" d="M25 0l160 0c14,0 25,11 25,25l0 160c0,14 -11,25 -25,25l-160 0c-14,0 -25,-11 -25,-25l0 -160c0,-14 11,-25 25,-25zm140 70l-25 -25c-1,-1 -3,-1 -4,0l-32 32 -32 -32c-1,-1 -3,-1 -4,0l-25 25c-1,1 -1,3 0,4l32 32 -32 32c-1,1 -1,3 0,4l25 25c1,1 3,1 4,0l32 -32 32 32c1,1 3,1 4,0l25 -25c1,-1 1,-3 0,-4l-32 -32 32 -32c1,-1 1,-3 0,-4z"/>
 </g>
</svg>
