<?xml version="1.0" encoding="UTF-8"?>
<!DOCTYPE svg PUBLIC "-//W3C//DTD SVG 1.1//EN" "http://www.w3.org/Graphics/SVG/1.1/DTD/svg11.dtd">
<!-- Creator: CorelDRAW X6 -->
<svg xmlns="http://www.w3.org/2000/svg" xml:space="preserve" width="210mm" height="210mm" version="1.1" style="shape-rendering:geometricPrecision; text-rendering:geometricPrecision; image-rendering:optimizeQuality; fill-rule:evenodd; clip-rule:evenodd"
viewBox="0 0 210 210"
 xmlns:xlink="http://www.w3.org/1999/xlink">
 <defs>
  <style type="text/css">
   <![CDATA[
    .fil0 {fill:#E8D9AE}
   ]]>
  </style>
 </defs>
 <g id="Слой_x0020_1">
  <metadata id="CorelCorpID_0Corel-Layer"/>
  <path class="fil0" d="M20 0l170 0c11,0 20,9 20,20l0 170c0,11 -9,20 -20,20l-170 0c-11,0 -20,-9 -20,-20l0 -170c0,-11 9,-20 20,-20zm85 35c39,0 70,31 70,70 0,39 -31,70 -70,70 -39,0 -70,-31 -70,-70 0,-39 31,-70 70,-70z"/>
  <rect class="fil0" x="55" y="88" width="100" height="35"/>
  <rect class="fil0" transform="matrix(2.92932E-014 -0.948043 0.840784 1.90867E-014 87.5 155)" width="105" height="42"/>
 </g>
</svg>
