<?xml version="1.0" encoding="UTF-8"?>
<!DOCTYPE svg PUBLIC "-//W3C//DTD SVG 1.1//EN" "http://www.w3.org/Graphics/SVG/1.1/DTD/svg11.dtd">
<!-- Creator: CorelDRAW X6 -->
<svg xmlns="http://www.w3.org/2000/svg" xml:space="preserve" width="210mm" height="210mm" version="1.1" style="shape-rendering:geometricPrecision; text-rendering:geometricPrecision; image-rendering:optimizeQuality; fill-rule:evenodd; clip-rule:evenodd"
viewBox="0 0 210 210"
 xmlns:xlink="http://www.w3.org/1999/xlink">
 <defs>
  <style type="text/css">
   <![CDATA[
    .fil0 {fill:#5BB8E8}
   ]]>
  </style>
 </defs>
 <g id="Слой_x0020_1">
  <metadata id="CorelCorpID_0Corel-Layer"/>
  <path class="fil0" d="M105 0c58,0 105,47 105,105 0,58 -47,105 -105,105 -58,0 -105,-47 -105,-105 0,-58 47,-105 105,-105zm-19 120l-32 -32c-1,-1 -1,-1 -2,-1l-5 0c-1,0 -2,1 -2,3l0 73c0,1 1,3 2,3 38,0 77,0 115,0 1,0 3,-1 3,-3l0 -25c0,-1 -1,-2 -3,-2l-88 0 11 -11c1,-1 1,-3 0,-4zm37 -30l32 32c1,1 1,1 2,1l5 0c1,0 2,-1 2,-3l0 -73c0,-1 -1,-3 -2,-3 -38,0 -77,0 -115,0 -1,0 -3,1 -3,3l0 25c0,1 1,2 3,2l88 0 -11 11c-1,1 -1,3 0,4z"/>
 </g>
</svg>
